<svg width="28" height="27" viewBox="0 0 28 27" fill="none" xmlns="http://www.w3.org/2000/svg">
<path fill-rule="evenodd" clip-rule="evenodd" d="M13.91 0.0340576C6.45619 0.0340576 0.418945 6.04729 0.418945 13.4715C0.418945 19.4175 4.28076 24.4397 9.64346 26.2202C10.318 26.3378 10.571 25.9346 10.571 25.5819C10.571 25.2628 10.5541 24.2046 10.5541 23.0792C7.16447 23.7007 6.28756 22.2562 6.01773 21.5003C5.86596 21.114 5.20827 19.9214 4.6349 19.6023C4.16271 19.3503 3.48816 18.7288 4.61804 18.712C5.68046 18.6952 6.43933 19.6863 6.69229 20.0894C7.90648 22.1218 9.84582 21.5507 10.6216 21.198C10.7396 20.3245 11.0937 19.7366 11.4816 19.4007C8.47985 19.0648 5.34318 17.9058 5.34318 12.766C5.34318 11.3047 5.86596 10.0953 6.72601 9.15469C6.5911 8.81876 6.11892 7.44142 6.86093 5.59378C6.86093 5.59378 7.9908 5.24105 10.571 6.97112C11.6503 6.66877 12.797 6.5176 13.9437 6.5176C15.0905 6.5176 16.2372 6.66877 17.3165 6.97112C19.8967 5.22425 21.0265 5.59378 21.0265 5.59378C21.7685 7.44142 21.2964 8.81876 21.1614 9.15469C22.0215 10.0953 22.5443 11.2879 22.5443 12.766C22.5443 17.9226 19.3907 19.0648 16.389 19.4007C16.878 19.8206 17.2996 20.6269 17.2996 21.8866C17.2996 23.6839 17.2828 25.1284 17.2828 25.5819C17.2828 25.9346 17.5357 26.3546 18.2103 26.2202C23.5392 24.4397 27.4011 19.4007 27.4011 13.4715C27.4011 6.04729 21.3638 0.0340576 13.91 0.0340576Z" fill="#1B18E9"/>
</svg>
