<svg width="22" height="20" viewBox="0 0 22 20" fill="none" xmlns="http://www.w3.org/2000/svg">
<path d="M5.47868 19.7264V6.76026H1.17275V19.7264H5.47913H5.47868ZM3.32662 4.99025C4.82787 4.99025 5.7625 3.9946 5.7625 2.75032C5.7344 1.47769 4.82787 0.509827 3.35517 0.509827C1.88145 0.509827 0.918945 1.47769 0.918945 2.75021C0.918945 3.99449 1.85324 4.99014 3.2984 4.99014H3.32628L3.32662 4.99025ZM7.86208 19.7264H12.1677V12.4863C12.1677 12.0993 12.1958 11.7113 12.3095 11.4349C12.6207 10.6603 13.3291 9.85848 14.5189 9.85848C16.0766 9.85848 16.7001 11.0474 16.7001 12.7906V19.7264H21.0056V12.292C21.0056 8.30954 18.8816 6.45628 16.0487 6.45628C13.7261 6.45628 12.7061 7.75557 12.1393 8.64052H12.168V6.76071H7.8623C7.9185 7.97709 7.86196 19.7269 7.86196 19.7269L7.86208 19.7264Z" fill="#1B18E9"/>
</svg>
