<svg width="26" height="22" viewBox="0 0 26 22" fill="none" xmlns="http://www.w3.org/2000/svg">
<path d="M24.9126 3.40072C24.1201 3.74211 23.2869 3.97983 22.4336 4.10802C22.8325 4.03957 23.4195 3.32086 23.6532 3.02996C24.0082 2.59116 24.2787 2.09023 24.451 1.55262C24.451 1.51269 24.4909 1.45565 24.451 1.42713C24.4309 1.41615 24.4084 1.41039 24.3855 1.41039C24.3626 1.41039 24.3401 1.41615 24.32 1.42713C23.3934 1.92933 22.4073 2.31262 21.385 2.56793C21.3494 2.57883 21.3114 2.57981 21.2753 2.57076C21.2392 2.56172 21.2062 2.54299 21.1798 2.5166C21.1003 2.42176 21.0146 2.3322 20.9234 2.24851C20.5064 1.87458 20.0333 1.56854 19.5214 1.34157C18.8305 1.05784 18.0841 0.934965 17.3388 0.98222C16.6155 1.02794 15.9094 1.2221 15.2643 1.55262C14.6291 1.90109 14.0708 2.3745 13.623 2.9444C13.152 3.53097 12.812 4.2117 12.6257 4.9408C12.4722 5.63432 12.4547 6.35111 12.5744 7.05128C12.5744 7.17107 12.5744 7.18818 12.4719 7.17107C8.40851 6.57215 5.07463 5.12903 2.35054 2.03176C2.23086 1.89486 2.16817 1.89486 2.07129 2.03176C0.885909 3.83422 1.4615 6.68623 2.94323 8.09512C3.14269 8.28335 3.34785 8.46588 3.56441 8.637C2.88505 8.58873 2.22228 8.40446 1.61537 8.09512C1.50139 8.02097 1.43871 8.06089 1.43301 8.19779C1.41685 8.38758 1.41685 8.5784 1.43301 8.76819C1.55192 9.67775 1.91005 10.5394 2.47079 11.265C3.03152 11.9906 3.77473 12.5541 4.62441 12.8979C4.83155 12.9867 5.04738 13.0536 5.2684 13.0975C4.63947 13.2215 3.99444 13.2407 3.35925 13.1546C3.22248 13.1261 3.17118 13.2002 3.22248 13.3314C4.06022 15.613 5.87818 16.3089 7.21173 16.6968C7.3941 16.7253 7.57647 16.7253 7.78163 16.7709C7.78163 16.7709 7.78163 16.7709 7.74744 16.8051C7.35421 17.5238 5.7642 18.0087 5.03474 18.2597C3.70328 18.7383 2.2837 18.9213 0.874511 18.7958C0.652252 18.7616 0.600962 18.7673 0.543973 18.7958C0.486983 18.8244 0.543973 18.8871 0.606661 18.9441C0.891608 19.1324 1.17656 19.2978 1.4729 19.4575C2.35512 19.9391 3.28781 20.3217 4.25398 20.5983C9.25765 21.9787 14.8882 20.9634 18.6438 17.2272C21.5959 14.2954 22.6331 10.2512 22.6331 6.20139C22.6331 6.04738 22.8211 5.95612 22.9294 5.87626C23.6763 5.29382 24.3347 4.60597 24.8842 3.83422C24.9793 3.71918 25.0281 3.57271 25.0209 3.42354C25.0209 3.33798 25.0209 3.35509 24.9126 3.40072Z" fill="#1B18E9"/>
</svg>
